<svg xmlns="http://www.w3.org/2000/svg" height="65.822" viewBox="0 0 250 65.821938" width="250"><g transform="matrix(1.25 0 0 -1.25 -452.03 395.87)"><path d="m52.838 1.1191c-0.555 0-0.555 0.0563-2.602 5.418-3.65 9.5569-8.511 22.494-10.279 25.922-1.052 1.936-1.55 1.993-3.371 2.16-0.884 0.107-1.66 0.215-1.66 0.938 0 0.825 0.723 0.826 1.053 0.826 0.716 0 3.978-0.221 4.583-0.221 1.607 0 4.865 0.221 5.42 0.221 1.274 0 1.934 0 1.934-0.776 0-0.658-0.66-0.826-2.102-0.882-1.269-0.057-2.654-0.166-2.654-1.549 0-0.66 0.498-2.153 0.498-2.319l1.879-5.916c0.446-1.437 0.444-1.437 2.1-1.437h6.636c1.492 0 1.655-0.001 2.262 1.662l2.379 6.629c0.109 0.224 0.389 1.048 0.389 1.603 0 0.83-0.498 1.108-1.936 1.221-1.106 0.107-1.99 0.272-1.99 0.988 0 0.776 0.718 0.776 1.268 0.776 0.167 0 3.044-0.221 6.414-0.221 0.936 0 5.532 0.221 6.472 0.221 0.327 0 1.268 0 1.268-0.719 0-0.715-0.608-0.83-1.551-0.939-2.261-0.331-2.816-1.55-4.58-5.803l-8.631-21.006c-0.442-1.0497-1.047-2.5941-1.594-4.1445-0.833-2.265-1.004-2.6524-1.605-2.6524zm101.64 0c-0.56 0-0.56 0.0563-2.6 5.418-3.65 9.5569-8.52 22.494-10.28 25.922-1.05 1.936-1.55 1.993-3.37 2.16-0.89 0.107-1.66 0.215-1.66 0.938 0 0.825 0.72 0.826 1.05 0.826 0.72 0 3.98-0.221 4.58-0.221 1.61 0 4.87 0.221 5.42 0.221 1.28 0 1.94 0 1.94-0.776 0-0.658-0.66-0.826-2.1-0.882-1.27-0.057-2.66-0.166-2.66-1.549 0-0.66 0.5-2.153 0.5-2.319l1.88-5.916c0.44-1.437 0.44-1.437 2.1-1.437h6.63c1.5 0 1.66-0.001 2.27 1.662l2.38 6.629c0.11 0.224 0.38 1.048 0.38 1.603 0 0.83-0.49 1.108-1.93 1.221-1.1 0.107-1.99 0.272-1.99 0.988 0 0.776 0.72 0.776 1.27 0.776 0.17 0 3.04-0.221 6.41-0.221 0.94 0 5.53 0.221 6.47 0.221 0.33 0 1.27 0 1.27-0.719 0-0.715-0.61-0.83-1.55-0.939-2.26-0.331-2.81-1.55-4.58-5.803l-8.63-21.006c-0.44-1.0497-1.04-2.5941-1.6-4.1445-0.83-2.265-0.99-2.6524-1.6-2.6524zm-134.53 0.2754c-10.721 0-19.066 7.624-19.066 17.576-0.00014 10.563 9.231 17.745 18.9 17.745 9.393 0 18.85-7.517 18.85-18.242 0-9.5044-8.346-17.078-18.684-17.078zm53.838 0.3321c-1.827 0-2.047 0.0002-2.047 0.7734 0 0.7772 0.773 0.8304 1.932 0.9414 2.82 0.1696 2.82 1.6568 2.82 3.9238v23.379c0 2.265 0 3.704-2.82 3.924-1.159 0.059-1.932 0.115-1.932 0.889 0 0.825 0.714 0.826 1.162 0.826 0.16 0 5.414-0.221 6.461-0.221 1.054 0 5.638 0.221 6.58 0.221 0.447 0 1.161-0.001 1.161-0.772 0-0.827-0.773-0.885-1.934-0.943-2.818-0.164-2.766-1.659-2.766-3.977v-9.451c0-0.827 0-1.549 0.664-1.549 0.331 0 1.111 0.83 1.495 1.272l10.058 10.941c0.884 0.998 1.104 1.386 1.104 1.772 0 0.603-0.828 0.939-1.436 0.992l-1.66 0.115c-0.22 0.049-0.772 0.219-0.772 0.828 0 0.771 0.608 0.772 1.272 0.772 0.941 0 2.266-0.221 7.903-0.221 4.09 0 4.42 0.221 5.81 0.221 1.54 0 2.09-0.001 2.09-0.772 0-0.827-0.88-0.828-1.82-0.828-1.16 0-2.1-0.773-5.25-4.092l-13.098-13.982c-0.61-0.662-0.719-0.831-0.719-1.051 0-0.278 0.108-0.33 1.049-1.164l6.47-5.6913c6.078-5.3052 7.398-5.416 8.678-5.416 1.49 0 2.37-0.057 2.37-0.8867 0-0.3876-0.33-0.7734-1.05-0.7734-1.05 0-5.746 0.2246-6.685 0.2246-0.884 0-4.756-0.2246-5.525-0.2246-0.556 0-1.442 0.0004-1.442 0.8281 0 0.6662 0.499 0.8867 2.045 0.8867 1.274 0 2.213 0.0008 2.213 0.9981 0 1.6573-12.653 12.93-13.484 12.93-0.164-0.001-0.28-0.218-0.28-0.554v-9.4508c0-2.3215 0-3.7542 2.766-3.9238 1.161-0.111 1.934-0.1642 1.934-0.9414 0-0.7732-0.714-0.7734-1.161-0.7734-1.049 0-5.526 0.2246-6.466 0.2246-0.887 0-2.212-0.0006-5.69-0.2246zm50.075 0c-1.05 0.004-2.99 0.2207-6.47 0.2207-2.87 0-5.8-0.2168-6.74-0.2168-0.45-0.0041-1.17-0.0037-1.17 0.7695 0 0.8317 0.78 0.887 1.94 0.9395 2.82 0.1675 2.82 1.6568 2.82 3.9238v23.326c0 2.322 0 3.813-2.82 3.979-1.1 0.115-1.94 0.166-1.94 0.941 0 0.774 0.72 0.774 1.11 0.774 0.55 0 0.55-0.217 9.89-0.217 12.55 0 12.5 0.217 12.99 0.217 1 0 1.27-0.279 1.38-1.324 0.06-0.941 0.78-5.865 0.78-6.305s-0.16-0.883-0.72-0.883c-0.33 0-0.55 0.222-0.77 0.664-2.99 5.529-6.92 6.08-9.56 6.08-3.43 0-4.43-1.879-4.43-5.363v-22.053c0-2.1013 0.11-3.592 2.93-3.7595 1.11-0.0525 1.94-0.1078 1.94-0.9395 0-0.7732-0.72-0.7734-1.16-0.7734zm59.47 0c-0.72 0.004-2.05 0.2226-3.59 0.2226-1.78 0-4.26-0.2187-4.87-0.2187-0.99-0.0041-1.71 0.0529-1.71 0.7695 0 0.8297 0.89 0.8283 2.04 0.8828 2.5 0 2.88 0.555 2.88 4.8125v18.409c0 7.515-0.23 7.735-2.66 8.064-2.32 0.281-2.54 0.332-2.54 0.996 0 0.719 0.77 0.719 0.94 0.719 1 0 3.49-0.221 6.3-0.221 1.72 0 3.81 0.221 4.48 0.221 0.44 0 1.32-0.001 1.32-0.772 0-0.724-0.27-0.723-2.48-0.884-2.49-0.223-3.15-0.777-3.2-8.788l-0.23-19.015 0.11-0.1154 23.55 29.296c0.94 1.222 1.32 1.272 1.77 1.272 0.83 0 0.83-1.048 0.83-1.602l-0.11-28.91c-0.06-3.0359 0.77-3.1448 2.81-3.3689 1.61-0.1131 2.16-0.2753 2.16-0.9395 0-0.8296-0.71-0.83-0.99-0.83-0.94 0.004-5.09 0.2246-5.92 0.2246-0.72 0-3.81-0.2207-4.43-0.2207-0.38-0.0041-1.37-0.0037-1.37 0.7695 0 0.7772 0.83 0.8283 2.48 0.8828 2.22 0.1131 2.82 0.1128 2.94 6.8012l0.21 17.023-0.1 0.111-18.74-23.935c-0.39-0.4968-0.89-1.6564-1.88-1.6564zm43.55 0.0019c-5.14 0-14.37 0.7719-14.37 2.3223 0 0.4441 0.28 0.6074 0.78 0.6074 0.38 0 1.98-0.4414 2.31-0.4414 1.11 0 1.77 0.7741 1.77 3.0391v23.492c0 2.263 0 3.755-2.82 3.918-1.1 0.061-1.93 0.118-1.93 0.947 0 0.773 0.72 0.774 1.11 0.774 0.27 0 5.52-0.225 6.51-0.225 1.39 0 8.52 0.225 10.12 0.225 14.43 0 18.52-11.445 18.52-17.362 0-5.357-2.82-10.663-7.35-13.759-3.54-2.4329-7.52-3.5375-14.65-3.5375zm-207.6 1.1035c8.79 0 12.711 9.288 12.711 15.865 0 8.013-4.034 16.582-11.773 16.582-7.461 0-12.711-8.516-12.711-17.467-0.0003-7.8523 4.037-14.98 11.773-14.98zm207.66 0.3321c11.72 0 15.42 9.8949 15.42 16.193 0 8.844-6.52 15.643-13.88 15.643-4.25 0-5.19-1.934-5.19-5.467v-21.947c0-3.0907 0.33-4.4219 3.65-4.4219zm-176.43 7.4079l3.869 9.506c0.165 0.333 0.334 0.772 0.334 1.049 0 0.168 0 0.393-1.278 0.393h-5.25c-0.993 0-1.32-0.002-1.32-0.559 0-0.388 0.166-0.936 0.217-1.051l3.428-9.338zm101.64 0l3.88 9.506c0.16 0.333 0.33 0.772 0.33 1.049 0 0.168 0 0.393-1.27 0.393h-5.26c-1 0-1.32-0.002-1.32-0.559 0-0.388 0.16-0.936 0.22-1.051l3.42-9.338zm47.52 29.162c-0.29 0-0.4 0.219-0.52 0.512-0.25 0.664-0.44 1.141-4.22 1.141h-11.8c-0.8 0-1.47-0.032-1.65-1.03-0.04-0.331-0.15-0.513-0.44-0.513-0.33 0-0.44 0.22-0.55 0.658l-1.51 5.182c-0.04 0.183-0.11 0.406-0.11 0.587 0 0.223 0.18 0.481 0.48 0.481 0.33 0 0.52-0.147 0.84-0.736 1.87-3.489 4.3-3.489 6.51-3.489 0.73 0 1.03 0.001 1.03 0.952v17.087c0 1.436 0 2.427-1.84 2.538-0.77 0.07-1.28 0.114-1.28 0.625 0 0.551 0.47 0.552 0.76 0.552 0.7 0 3.68-0.148 4.31-0.148 1.2 0 3.12 0.148 4.33 0.148 0.29 0 0.77-0.001 0.77-0.552 0-0.556-0.51-0.591-1.29-0.625-1.84-0.112-1.84-1.102-1.84-2.61v-16.756c0-1.211 0.19-1.211 2.29-1.211 2.38 0 4.18-0.001 4.81 3.526 0.15 0.771 0.4 0.81 0.59 0.81 0.47 0 0.55-0.445 0.58-1.179l0.27-4.483c0-0.878-0.01-1.467-0.52-1.467zm-40.35 1.286c-4.66 0-7.24 2.939-7.24 6.318 0 3.896 2.91 5.33 5.88 6.654 2.65 1.211 5.15 2.61 5.15 5.475 0 2.973-2.83 4.078-4.38 4.078-2.6 0-5.1-2.316-5.8-5.584-0.07-0.331-0.18-0.627-0.52-0.627-0.44 0-0.47 0.511-0.47 0.66-0.11 1.324-0.11 3.159-0.11 3.307 0 0.916 0.04 1.43 0.44 1.726 0.66 0.479 2.98 1.471 5.84 1.471 4.88 0 7.9-3.416 7.9-7.496 0-4.155-3.86-5.952-5.92-6.836-2.94-1.207-5.07-2.126-5.07-4.738 0-1.436 1-3.528 4.01-3.528 3.05 0 3.71 2.092 4.15 3.528 0.37 1.138 0.52 1.363 0.88 1.363 0.52 0 0.52-0.3 0.52-1.103 0-3.236 0-3.566-0.44-3.825-0.52-0.256-2.68-0.843-4.82-0.843zm-134.81 0.218c-0.293 0-0.772 0.001-0.772 0.518 0 0.549 0.554 0.585 1.323 0.621 1.839 0.113 1.839 1.102 1.839 2.644v11.946c0 6.171 4.627 7.529 9.627 7.529 8.233 0 8.233-5.29 8.233-7.312v-11.459c0-3.055 0.402-3.272 2.09-3.383 0.516-0.037 1.175-0.071 1.175-0.586 0-0.148-0.074-0.518-0.621-0.518-0.514 0-2.129 0.149-3.564 0.149-1.692 0-2.503-0.149-3.088-0.149-0.331 0-0.846 0-0.846 0.477 0 0.517 0.444 0.555 1.215 0.59 1.981 0.147 2.278 0.554 2.278 3.638v11.393c0 2.202-0.442 6.137-6.284 6.137-6.284 0-6.285-4.523-6.285-7.059v-11.502c0-1.433 0-2.388 1.914-2.535 0.771-0.036 1.281-0.073 1.281-0.59 0-0.549-0.439-0.549-0.732-0.549-0.22 0-1.91 0.149-4.449 0.149-2.534 0-3.967-0.149-4.334-0.149zm50.93 0c-0.297 0-0.776 0.001-0.776 0.516 0 0.553 0.511 0.587 1.322 0.625 1.837 0.147 1.838 1.098 1.838 2.644v15.51c0 1.502-0.001 2.46-1.838 2.606-0.769 0.036-1.322 0.079-1.322 0.59 0 0.551 0.479 0.552 0.776 0.552 0.367 0 2.205-0.148 4.296-0.148 2.423 0 3.641 0.148 4.411 0.148 0.292 0 0.771-0.001 0.771-0.517 0-0.545-0.513-0.589-1.322-0.625-1.837-0.107-1.838-1.103-1.838-2.645v-15.58c0-1.437 0.001-2.388 1.838-2.535 0.769-0.038 1.322-0.071 1.322-0.586 0-0.553-0.479-0.555-0.771-0.555-0.552 0-1.727 0.149-4.377 0.149-2.241 0-3.559-0.149-4.33-0.149zm93.254 0c-0.29 0-0.77 0.001-0.77 0.516 0 0.553 0.52 0.587 1.33 0.625 1.83 0.147 1.83 1.098 1.83 2.644v15.51c0 1.502 0 2.46-1.83 2.606-0.78 0.036-1.33 0.079-1.33 0.59 0 0.551 0.48 0.552 0.77 0.552 0.37 0 2.21-0.148 4.3-0.148 2.43 0 3.64 0.148 4.41 0.148 0.3 0 0.77-0.001 0.77-0.517 0-0.545-0.51-0.589-1.32-0.625-1.84-0.107-1.84-1.103-1.84-2.645v-15.58c0-1.437 0-2.388 1.84-2.535 0.77-0.038 1.32-0.071 1.32-0.586 0-0.553-0.47-0.555-0.77-0.555-0.55 0-1.73 0.149-4.37 0.149-2.24 0-3.57-0.149-4.34-0.149zm-119.05 0.002c-0.667 0-1.145 0.036-1.145 0.512 0 0.553 0.59 0.553 1.363 0.588 1.652 0 1.91 0.367 1.91 3.197v12.238c0 4.999-0.148 5.144-1.769 5.364-1.54 0.183-1.686 0.222-1.686 0.66 0 0.478 0.518 0.478 0.627 0.478 0.658 0 2.313-0.144 4.186-0.144 1.14 0 2.538 0.144 2.978 0.144 0.297 0 0.885 0.001 0.885-0.509 0-0.479-0.186-0.479-1.656-0.59-1.651-0.148-2.093-0.517-2.127-5.844l-0.15-12.643 0.07-0.07 15.656 19.475c0.626 0.805 0.879 0.845 1.174 0.845 0.553 0 0.555-0.701 0.555-1.066l-0.078-19.215c-0.037-2.021 0.516-2.094 1.873-2.248 1.065-0.073 1.435-0.179 1.435-0.621 0-0.551-0.476-0.551-0.664-0.551-0.622 0-3.377 0.151-3.928 0.151-0.482 0-2.535-0.151-2.939-0.151-0.258 0-0.92-0.001-0.92 0.512 0 0.515 0.55 0.553 1.652 0.588 1.468 0.073 1.877 0.072 1.953 4.523l0.145 11.317-0.074 0.072-12.459-15.912c-0.259-0.329-0.586-1.1-1.246-1.1-0.483 0-1.361 0.151-2.393 0.151-1.173 0-2.829-0.151-3.228-0.151zm35.966 0.002c-0.258 0-0.584 0.109-0.584 0.475 0 0.478 0.402 0.515 1.211 0.588 1.105 0.109 1.432 0.219 2.387 2.533l8.049 19.223c0.256 0.583 0.441 0.767 0.697 0.767 0.297 0 0.55-0.475 0.625-0.695l7.426-18.377c1.1-2.756 1.5-3.231 2.39-3.342 1.43-0.218 1.58-0.257 1.58-0.697 0-0.475-0.48-0.475-0.67-0.475-0.55 0-2.27 0.147-3.26 0.147-1.18 0-2.91-0.147-3.13-0.147-0.4 0-0.99 0.001-0.99 0.514s0.48 0.547 1.58 0.584c0.62 0.04 1.51 0.221 1.51 1.103 0 0.733-0.3 1.583-0.66 2.461l-4.932 12.532-5.51-13.188c-0.626-1.512-0.771-1.806-0.771-1.951 0-0.808 0.514-0.843 2.24-1.065 0.297 0 0.629-0.109 0.629-0.476 0-0.404-0.37-0.514-0.701-0.514-0.737 0-1.873 0.147-3.93 0.147-2.574 0-4.521-0.147-5.186-0.147zm24.951 0c-0.25 0-0.73-0.001-0.73 0.51 0 0.555 0.51 0.588 1.32 0.629 1.84 0.111 1.84 1.101 1.84 2.605v15.508c0 1.508 0 2.497-1.84 2.61-0.77 0.074-1.32 0.112-1.32 0.623 0 0.555 0.48 0.554 0.77 0.554 0.26 0 0.55-0.04 1.14-0.074 0.59-0.038 1.51-0.078 3.01-0.078h0.44c0.22 0 1.95 0.04 4.04 0.078 2.13 0.034 4.71 0.074 6.58 0.074 1.07 0 1.43-0.405 1.47-1.101 0.11-1.363 0.51-3.715 0.51-4.192 0-0.222-0.11-0.55-0.44-0.55s-0.39 0.143-1.06 1.435c-1.62 3.119-3.9 3.117-5.51 3.117-3.09 0-3.86-0.403-3.86-3.01v-6.322c0-1.102 0.29-1.101 2.06-1.101 3.01 0 4.04 0.039 4.81 2.867 0.18 0.696 0.41 0.877 0.7 0.877 0.44 0 0.44-0.511 0.44-0.729 0-0.296-0.11-1.581-0.11-1.842 0-0.807 0.26-4.588 0.26-5.103 0-0.404-0.19-0.514-0.41-0.514-0.18 0-0.37 0.073-0.55 0.545-0.66 1.952-0.99 2.762-5.07 2.762-2.13 0-2.13-0.294-2.13-1.469v-5.334c0-1.835 0.14-2.094 1.98-2.094 5.22 0 6.1 1.397 6.55 2.354 0.66 1.357 0.73 1.508 1.13 1.508 0.38 0 0.38-0.441 0.38-0.627v-3.377c0-0.848 0-1.139-0.45-1.139-0.11 0-0.15 0.036-1.1 0.074-0.99 0.035-2.87 0.073-6.66 0.073h-1.76c-3.12 0-4.7-0.038-5.51-0.073-0.81-0.038-0.84-0.074-0.92-0.074zm19.7 0c-1.22 0-1.36 0.001-1.36 0.512 0 0.515 0.51 0.549 1.32 0.586 1.8 0.113 1.8 1.103 1.8 2.613v15.578c0 1.541 0 2.499-1.8 2.645-0.77 0.04-1.32 0.073-1.32 0.588 0 0.553 0.48 0.513 0.77 0.513 0.66 0 3.64-0.144 4.26-0.144 0.15 0 3.71 0.144 4.41 0.144 0.3 0 0.78 0.039 0.78-0.476 0-0.553-0.52-0.585-1.33-0.625-1.84-0.109-1.83-1.104-1.83-2.645v-6.615c0-0.624 0.07-0.846 0.69-0.846 1.65 0 1.84 0.148 2.64 1.731l4.45 8.375c0.41 0.775 0.56 1.101 1.21 1.101 0.34 0 1.7-0.144 1.99-0.144 0.55 0 2.94 0.144 3.42 0.144 0.26 0 0.62-0.035 0.62-0.441 0-0.474-0.29-0.511-1.5-0.66-1.03-0.146-1.55-1.066-2.28-2.352l-3.57-6.316c-0.85-1.549-1.28-1.768-1.76-2.059 1.25-0.256 5.04-1.143 5.04-5.439 0-1.288-0.56-5.768-7.06-5.768-1.1 0-5.99 0.147-6.98 0.147-0.45 0-2.25-0.147-2.61-0.147zm71.68 0c-0.77 0-1.24-0.001-1.24 0.51 0 0.48 0.15 0.515 1.5 0.662 0.48 0.038 1.33 0.148 2.98 2.572l6.17 8.965c0.3 0.408 0.3 0.7 0.3 0.92v5.66c0 1.504 0 2.46-1.84 2.606-0.77 0.042-1.32 0.079-1.32 0.59 0 0.555 0.47 0.554 0.77 0.554 0.25 0 2.46-0.152 4.77-0.152 1.22 0 2.91 0.152 3.94 0.152 0.29 0 0.77-0.001 0.77-0.517 0-0.586-0.51-0.628-1.32-0.66-1.84-0.114-1.84-1.102-1.84-2.61v-6.615c0-0.44 0.11-0.627 0.26-0.809l4.55-6.836c2.13-3.157 2.94-3.966 4.59-3.966 0.23 0 0.74-0.147 0.74-0.516 0-0.331-0.25-0.51-0.63-0.51-0.33 0-1.83 0.147-3.2 0.147-2.08 0-2.68-0.147-3.52-0.147-0.37 0-1.03 0-1.03 0.549 0 0.517 0.66 0.549 0.92 0.549 1.29 0.04 2.02 0.075 2.02 0.957 0 0.696-0.92 2.204-1.18 2.607l-4.22 6.471-5.33-7.973c-0.7-1.033-0.7-1.219-0.7-1.435 0-0.372 0.3-0.586 1.29-0.586 1.13-0.041 1.54-0.187 1.54-0.629 0-0.511-0.41-0.51-0.96-0.51-0.36 0-1.13 0.147-4.59 0.147-2.83 0-3.38-0.147-4.19-0.147zm-64.26 1.026c4.56 0 5.07 3.931 5.07 5.255 0 4.595-3.63 4.594-4.96 4.594-1.84 0-1.83-0.075-1.83-1.361v-6.176c0-1.431 0.03-2.312 1.72-2.312z" transform="matrix(.8 0 0 -.8 361.62 316.7)"/></g></svg>
